# xmcd
#
# Track frame offsets: 
#        182
#        12017
#        25312
#        40165
#        54097
#        67900
#        82247
#        94647
#        108060
#        121345
#        134552
#        147332
#        159257
#        171455
#        184322
#        197157
#        210110
#        223522
#        236135
#        249067
#        262247
#        274127
#        287937
#        300295
#
# Disc length: 4193 seconds
#
# Revision: 0
# Processed by: cddbd v1.5.1PL2 Copyright (c) Steve Scherf et al.
# Submitted via: ExactAudioCopy v0.95b3
#
DISCID=52105f18
DTITLE=Big Bill Broonzy - Best of Blues
DYEAR=1900
DGENRE=Blues
TTITLE0=That's the Way She Likes It
TTITLE1=Too Too Train Blues
TTITLE2=Shelby County Blues
TTITLE3=She Caught the Train
TTITLE4=The Dozen
TTITLE5=Don't Tear My Clothes
TTITLE6=Ash Hauler
TTITLE7=Out With the Wrong Woman
TTITLE8=Down in the Alley
TTITLE9=Stuff They Call Money
TTITLE10=Good Boy
TTITLE11=Unemployment Stomp
TTITLE12=Rider Rider Blues
TTITLE13=Whiskey and Good Time Blues
TTITLE14=Make My Get Away
TTITLE15=Looking For My Baby
TTITLE16=My Mellow Man
TTITLE17=Knockin' Myself Out
TTITLE18=Green Grass Blues
TTITLE19=Key to the Highway
TTITLE20=What's Wrong With Me
TTITLE21=Wee Wee Blues
TTITLE22=Conversation With the Blues
TTITLE23=San Antonio Blues
EXTD=
EXTT0=
EXTT1=
EXTT2=
EXTT3=
EXTT4=
EXTT5=
EXTT6=
EXTT7=
EXTT8=
EXTT9=
EXTT10=
EXTT11=
EXTT12=
EXTT13=
EXTT14=
EXTT15=
EXTT16=
EXTT17=
EXTT18=
EXTT19=
EXTT20=
EXTT21=
EXTT22=
EXTT23=
PLAYORDER=
